<svg xmlns="http://www.w3.org/2000/svg" id="Layer_1" width="302" height="140" viewBox="0 0 302 140"><defs><style>.cls-1{opacity:.69;fill:url(#linear-gradient)}.cls-2{fill:#fff}</style><linearGradient id="linear-gradient" x1="-1829.25" x2="-1811.22" y1="-4563.39" y2="-2057.06" gradientTransform="translate(-175.45 26.1)" gradientUnits="userSpaceOnUse"><stop offset="0" stop-color="#1b1862" stop-opacity="0"/><stop offset=".35" stop-color="#1b1862"/><stop offset=".66" stop-color="#662d91"/><stop offset="1" stop-color="#1b1862" stop-opacity="0"/></linearGradient></defs><path d="M-5252.25-4550.58h6513.32v2559.15h-6513.32z" class="cls-1" transform="rotate(-48.07 -1995.313 -3270.814)"/><path d="M67.32 113.79H51.27l-11.54-12.43-27.62-29.6v29.6H1V1.45h11.11V67.4l26.16-27.1h14.54L24.26 69.11l24.8 25.86 18.26 18.82z" class="cls-2"/><path d="M58.36 83s6.47 9.92 18.5 9.92c6.21 0 13.22-2.65 13.22-7.54 0-5.28-4.5-7.93-13.88-9.78-13.08-2.6-22.34-7.81-22.34-19.3 0-8.86 8.86-17.58 22.47-17.58A31.73 31.73 0 0 1 98.93 48l-7.27 7.5s-6.08-6.74-15.33-6.74c-7.8 0-11.63 3.84-11.63 7.8 0 4.63 4.76 7.14 14.8 9.25 11.63 2.51 21.55 6.87 21.55 19.3 0 11.76-12.43 17.84-24.19 17.84a33.47 33.47 0 0 1-26.17-12.82zm104.53-11.77a35.23 35.23 0 0 1-.13 3.57h-49.29c.66 9.25 9.51 17.84 21 17.84a23.57 23.57 0 0 0 18.37-9l7 7.27s-9.25 12-25.37 12c-18.5 0-31.85-14-31.85-32.12 0-17.84 12.16-32.11 30.53-32.11 17.06.04 29.74 12.86 29.74 32.55zm-10.83-5.68c-.4-6.87-6.61-16.52-18.9-16.52a18.93 18.93 0 0 0-19.43 16.52zm67.66-3.44v39.25h-11.1V64c0-10.48-6.48-15-14.62-15-9.91 0-15.2 10.31-15.2 10.31v42h-11.1v-61H178v8.59a21.72 21.72 0 0 1 18.77-10.18c12.11 0 22.95 8.33 22.95 23.39zm13.88-43.22a7.53 7.53 0 1 1-7.54 7.53 7.61 7.61 0 0 1 7.54-7.53zM228 40.31h11.11v61.05H228zm72.86 20.88v40.17h-10.17v-8.85A25.82 25.82 0 0 1 269.94 103c-11 0-22.73-7.67-22.73-20.88 0-11.9 10.44-20.35 24.18-20.35a34.16 34.16 0 0 1 18.37 5v-3.34c0-12.68-10.57-14.4-15.46-14.4-9.25 0-18.24 5.15-18.24 5.15l-4.62-9.25a45.47 45.47 0 0 1 22.86-6.21c17.97 0 26.56 11.1 26.56 22.47zm-11.1 22.73v-8.59s-6.08-4.36-16-4.36c-9.51 0-15.46 4.75-15.46 11.1 0 7.93 7.13 11.1 14 11.1 10.85 0 17.46-9.25 17.46-9.25zM93.14 110.64l-15.24 24h14.5v3.1h-20l15.24-24H73.41v-3.1zm19.96 0h3.26v27.13h-3.26v-12.36H99.5v12.36h-3.26v-27.13h3.26v11.67h13.6zm10.55 11.67h11.47v3.1h-11.47v9.26h12.64v3.1h-15.9v-27.13h15.66v3.1h-12.4zm16.28-11.67h3.26v24h12.17v3.1h-15.43zm40.94 13.56c0 7.84-5.59 14-13.42 14S154 132 154 124.2s5.58-14 13.41-14 13.46 6.17 13.46 14zm-3.49 0c0-5.77-4-10.93-9.93-10.93s-9.92 5.16-9.92 10.93 4 10.94 9.92 10.94 9.93-5.14 9.93-10.94zm14.03 14.35l-11.32-27.91h3.57l7.83 19.88 7.87-19.88h3.37zm16.24-27.91h3l10.58 27.13h-3.41l-2.82-7.32h-11.69l-2.83 7.32H197zm-3.14 16.7h9.31l-4.65-12zm20.16-13.6h-7.79v-3.1h18.84v3.1h-7.79v24h-3.26zm20.43 13.37l-9.1-16.47h3.65l7.24 13.36 7.17-13.33h3.45l-9.15 16.47v10.66h-3.26zm17.76-3.72l11-12.75H278l-11.5 13.25 12.75 13.88h-4.41l-12-12.94v12.94h-3.24v-27.13h3.26zm34.89-12.75H301v27.13h-3.25v-12.36h-13.61v12.36h-3.26v-27.13h3.26v11.67h13.61z" class="cls-2"/></svg>