<svg id="Layer_1" data-name="Layer 1" xmlns="http://www.w3.org/2000/svg" viewBox="0 0 194.63 89.55"><defs><style>.cls-1{fill:#fff;}</style></defs><title>logo-ksenia-zhelovatykh</title><polygon class="cls-1" points="43.05 72.91 32.63 72.91 25.14 64.85 7.21 45.63 7.21 64.85 0 64.85 0 0 7.21 0 7.21 42.8 24.19 25.21 33.63 25.21 15.1 43.91 31.19 60.7 43.05 72.91"/><path class="cls-1" d="M37.23,52.92s4.2,6.44,12,6.44c4,0,8.58-1.72,8.58-4.89,0-3.43-2.92-5.15-9-6.35-8.49-1.72-14.5-5.06-14.5-12.52,0-5.75,5.75-11.41,14.58-11.41a20.61,20.61,0,0,1,14.67,6l-4.72,4.89a14.54,14.54,0,0,0-10-4.37c-5.06,0-7.54,2.48-7.54,5.06,0,3,3.08,4.63,9.6,6,7.55,1.63,14,4.46,14,12.53,0,7.63-8.07,11.58-15.7,11.58a21.74,21.74,0,0,1-17-8.32Z"/><path class="cls-1" d="M105.08,45.29a21.6,21.6,0,0,1-.09,2.32H73c.43,6,6.17,11.58,13.64,11.58a15.3,15.3,0,0,0,11.92-5.84l4.54,4.72a22.07,22.07,0,0,1-16.46,7.81C74.63,65.88,66,56.78,66,45c0-11.58,7.89-20.84,19.82-20.84C96.84,24.19,105.08,32.51,105.08,45.29ZM98,41.6A11.92,11.92,0,0,0,85.78,30.88,12.28,12.28,0,0,0,73.17,41.6Z"/><path class="cls-1" d="M142,39.37V64.85h-7.2V40.57c0-6.77-4.21-9.69-9.53-9.69-6.43,0-9.86,6.69-9.86,6.69V64.85h-7.21V25.22h6.7v5.57A14.09,14.09,0,0,1,127,24.19C134.93,24.19,142,29.59,142,39.37Z"/><rect class="cls-1" x="147.36" y="25.22" width="7.21" height="39.63"/><path class="cls-1" d="M194.63,38.77V64.85H188V59.1a16.75,16.75,0,0,1-13.47,6.78c-7.12,0-14.75-5-14.75-13.56,0-7.72,6.78-13.21,15.7-13.21a22.17,22.17,0,0,1,11.92,3.26V40.23c0-8.24-6.86-9.35-10-9.35-6,0-11.83,3.34-11.83,3.34l-3-6a29.55,29.55,0,0,1,14.84-4C189.05,24.19,194.63,31.39,194.63,38.77Zm-7.21,14.75V48A19,19,0,0,0,177,45.12c-6.17,0-10,3.09-10,7.2,0,5.15,4.63,7.21,9.09,7.21C183.13,59.53,187.42,53.52,187.42,53.52Z"/><path class="cls-1" d="M61.1,72.87,52,87.23h8.66v1.85h-12l9.1-14.35H49.31V72.87Z"/><path class="cls-1" d="M74,72.87h2V89.08H74V81.7H65.83v7.38H63.89V72.87h1.94v7H74Z"/><path class="cls-1" d="M81.2,79.84h6.85V81.7H81.2v5.53h7.55v1.85h-9.5V72.87h9.36v1.86H81.2Z"/><path class="cls-1" d="M91.86,72.87H93.8V87.23h7.27v1.85H91.86Z"/><path class="cls-1" d="M117.25,81c0,4.67-3.34,8.38-8,8.38s-8-3.71-8-8.38,3.34-8.39,8-8.39S117.25,76.3,117.25,81Zm-2.09,0c0-3.45-2.38-6.53-5.92-6.53s-5.93,3.08-5.93,6.53,2.38,6.53,5.93,6.53S115.16,84.43,115.16,81Z"/><path class="cls-1" d="M124.48,89.55l-6.76-16.68h2.13l4.68,11.88,4.7-11.88h2Z"/><path class="cls-1" d="M135.12,72.87h1.81l6.32,16.21h-2l-1.69-4.37h-7l-1.69,4.37h-2.09Zm-1.87,10h5.55L136,75.65Z"/><path class="cls-1" d="M146.22,74.73h-4.65V72.87h11.25v1.86h-4.65V89.08h-1.95Z"/><path class="cls-1" d="M159.36,82.71l-5.46-9.84h2.17l4.36,8,4.28-8h2.06l-5.46,9.84v6.37h-1.95Z"/><path class="cls-1" d="M170.9,80.49l6.56-7.62h2.47l-6.85,7.92,7.62,8.29h-2.64l-7.16-7.73v7.73H169V72.87h1.94Z"/><path class="cls-1" d="M192.68,72.87h1.95V89.08h-1.95V81.7h-8.13v7.38h-1.94V72.87h1.94v7h8.13Z"/><path class="cls-1" d="M150.93,11.32A4.89,4.89,0,1,1,146,16.21,4.94,4.94,0,0,1,150.93,11.32Z"/></svg>