<svg xmlns="http://www.w3.org/2000/svg" viewBox="0 0 194.63 89.55" width="194.63" height="89.55"><g fill="#fff"><path d="M43.05 72.91H32.63l-7.49-8.06L7.21 45.63v19.22H0V0h7.21v42.8l16.98-17.59h9.44L15.1 43.91 31.19 60.7z"/><path d="M37.23 52.92s4.2 6.44 12 6.44c4 0 8.58-1.72 8.58-4.89 0-3.43-2.92-5.15-9-6.35-8.49-1.72-14.5-5.06-14.5-12.52 0-5.75 5.75-11.41 14.58-11.41a20.61 20.61 0 0 1 14.67 6l-4.72 4.89a14.54 14.54 0 0 0-10-4.37c-5.06 0-7.54 2.48-7.54 5.06 0 3 3.08 4.63 9.6 6 7.55 1.63 14 4.46 14 12.53 0 7.63-8.07 11.58-15.7 11.58a21.74 21.74 0 0 1-17-8.32zm67.85-7.63a21.6 21.6 0 0 1-.09 2.32H73c.43 6 6.17 11.58 13.64 11.58a15.3 15.3 0 0 0 11.92-5.84l4.54 4.72a22.07 22.07 0 0 1-16.46 7.81C74.63 65.88 66 56.78 66 45c0-11.58 7.89-20.84 19.82-20.84 11.02.03 19.26 8.35 19.26 21.13zM98 41.6a11.92 11.92 0 0 0-12.22-10.72A12.28 12.28 0 0 0 73.17 41.6zm44-2.23v25.48h-7.2V40.57c0-6.77-4.21-9.69-9.53-9.69-6.43 0-9.86 6.69-9.86 6.69v27.28h-7.21V25.22h6.7v5.57a14.09 14.09 0 0 1 12.1-6.6c7.93 0 15 5.4 15 15.18zm5.36-14.15h7.21v39.63h-7.21zm47.27 13.55v26.08H188V59.1a16.75 16.75 0 0 1-13.47 6.78c-7.12 0-14.75-5-14.75-13.56 0-7.72 6.78-13.21 15.7-13.21a22.17 22.17 0 0 1 11.92 3.26v-2.14c0-8.24-6.86-9.35-10-9.35-6 0-11.83 3.34-11.83 3.34l-3-6a29.55 29.55 0 0 1 14.84-4c11.64-.03 17.22 7.17 17.22 14.55zm-7.21 14.75V48A19 19 0 0 0 177 45.12c-6.17 0-10 3.09-10 7.2 0 5.15 4.63 7.21 9.09 7.21 7.04 0 11.33-6.01 11.33-6.01zM61.1 72.87L52 87.23h8.66v1.85h-12l9.1-14.35h-8.45v-1.86zm12.9 0h2v16.21h-2V81.7h-8.17v7.38h-1.94V72.87h1.94v7H74zm7.2 6.97h6.85v1.86H81.2v5.53h7.55v1.85h-9.5V72.87h9.36v1.86H81.2zm10.66-6.97h1.94v14.36h7.27v1.85h-9.21zM117.25 81c0 4.67-3.34 8.38-8 8.38s-8-3.71-8-8.38 3.34-8.39 8-8.39 8 3.69 8 8.39zm-2.09 0c0-3.45-2.38-6.53-5.92-6.53s-5.93 3.08-5.93 6.53 2.38 6.53 5.93 6.53 5.92-3.1 5.92-6.53zm9.32 8.55l-6.76-16.68h2.13l4.68 11.88 4.7-11.88h2zm10.64-16.68h1.81l6.32 16.21h-2l-1.69-4.37h-7l-1.69 4.37h-2.09zm-1.87 10h5.55l-2.8-7.22zm12.97-8.14h-4.65v-1.86h11.25v1.86h-4.65v14.35h-1.95zm13.14 7.98l-5.46-9.84h2.17l4.36 8 4.28-8h2.06l-5.46 9.84v6.37h-1.95zm11.54-2.22l6.56-7.62h2.47l-6.85 7.92 7.62 8.29h-2.64l-7.16-7.73v7.73H169V72.87h1.94zm21.78-7.62h1.95v16.21h-1.95V81.7h-8.13v7.38h-1.94V72.87h1.94v7h8.13zm-41.75-61.55a4.89 4.89 0 1 1-4.93 4.89 4.94 4.94 0 0 1 4.93-4.89z"/></g></svg>