<svg id="Layer_1" data-name="Layer 1" xmlns="http://www.w3.org/2000/svg" xmlns:xlink="http://www.w3.org/1999/xlink" viewBox="0 0 177.34 197.25"><defs><style>.cls-1{fill:none;}.cls-2{fill:#fff;}.cls-3{clip-path:url(#clip-path);}</style><clipPath id="clip-path"><polygon class="cls-1" points="68.16 68.9 68.16 128.22 15.45 158.66 0.04 131.96 57.89 98.56 0.04 65.17 15.45 38.47 68.16 68.9"/></clipPath></defs><title>logo-ksenia-zhelovatykh-symbol</title><rect class="cls-2" x="73.26" y="5.14" width="6.68" height="186.98"/><polygon class="cls-2" points="165.27 44.32 97.4 83.5 97.4 5.14 104.08 5.14 104.08 71.94 161.93 38.54 165.27 44.32"/><polygon class="cls-2" points="165.27 152.94 161.93 158.73 104.08 125.32 104.08 192.12 97.4 192.12 97.4 113.75 165.27 152.94"/><polygon class="cls-2" points="119.49 98.63 177.34 132.03 174 137.81 106.14 98.63 174 59.45 177.34 65.24 119.49 98.63"/><polygon class="cls-2" points="173.65 143.54 175.88 144.83 172.29 151.06 170.06 149.78 167.84 148.49 97.4 107.82 94.83 106.33 92.27 104.85 92.27 197.25 85.08 197.25 85.08 0 92.27 0 92.27 92.41 94.83 90.93 97.4 89.44 167.84 48.77 170.06 47.48 172.29 46.2 175.88 52.44 173.65 53.72 171.43 55 97.4 97.74 95.87 98.63 97.4 99.51 97.4 99.52 111.53 107.68 111.54 107.68 171.43 142.26 173.65 143.54"/><g class="cls-3"><image width="675" height="1221" transform="translate(-9.81 12.87) scale(0.12)" xlink:href="../../../../7_Motion/week7_15.10-21.10/assets/lips.jpg"/></g></svg>