<svg id="Layer_1" data-name="Layer 1" xmlns="http://www.w3.org/2000/svg" viewBox="0 0 81 36"><defs><style>.cls-1{fill:#fff;}</style></defs><title>next-1</title><path class="cls-1" d="M48.48,13v7.69H46.3V13.34a2.65,2.65,0,0,0-2.87-2.93,3.78,3.78,0,0,0-3,2v8.24H38.28V8.7h2v1.69a4.24,4.24,0,0,1,3.67-2A4.36,4.36,0,0,1,48.48,13Z"/><path class="cls-1" d="M61.22,14.76a5.78,5.78,0,0,1,0,.7H51.53A4,4,0,0,0,55.65,19a4.61,4.61,0,0,0,3.6-1.76l1.37,1.42a6.66,6.66,0,0,1-5,2.36,6.12,6.12,0,0,1-6.24-6.29c0-3.5,2.38-6.3,6-6.3C58.73,8.39,61.22,10.91,61.22,14.76Zm-2.13-1.11a3.59,3.59,0,0,0-3.7-3.24,3.7,3.7,0,0,0-3.8,3.24Z"/><path class="cls-1" d="M63.86,8.7l3,4.41,3-4.41H72.3l-4,5.81,4.29,6.16H70L66.73,16,63.5,20.67H61.06l4.35-6.16L61.32,8.7Z"/><path class="cls-1" d="M72.22,8.7h2.33V5.05h2.18V8.7h3.73v2H76.73v6.45c0,1.17.57,1.84,1.73,1.84a2.8,2.8,0,0,0,1.37-.49l.81,1.78a5,5,0,0,1-2.49.73,3.5,3.5,0,0,1-3.6-3.76V10.67H72.22Z"/><path class="cls-1" d="M38.32,24.18h2.26a2.13,2.13,0,1,1,0,4.26H39.46v2.39H38.32Zm3.31,2.13c0-.63-.41-1-1.19-1h-1v2.09h1C41.22,27.35,41.63,26.93,41.63,26.31Z"/><path class="cls-1" d="M43.51,24.18H45.7a2,2,0,0,1,2.2,2.07,1.93,1.93,0,0,1-1.48,2l1.66,2.58H46.75l-1.58-2.51h-.52v2.51H43.51Zm3.23,2.07c0-.66-.45-1-1.19-1h-.9v2h.9C46.29,27.24,46.74,26.91,46.74,26.25Z"/><path class="cls-1" d="M55.21,27.51a3.37,3.37,0,1,1-3.37-3.45A3.32,3.32,0,0,1,55.21,27.51Zm-1.16,0a2.21,2.21,0,1,0-4.41,0,2.21,2.21,0,1,0,4.41,0Z"/><path class="cls-1" d="M58.44,24.18h1.14v4.56A2.06,2.06,0,0,1,57.31,31a2.33,2.33,0,0,1-2-1.12l.84-.7a1.47,1.47,0,0,0,1.11.73,1,1,0,0,0,1.13-1.08Z"/><path class="cls-1" d="M61.94,26.88H64.6V28H61.94v1.79h3v1.08H60.8V24.18h4v1.08H61.94Z"/><path class="cls-1" d="M70.59,29.06l.76.76A3.37,3.37,0,0,1,68.79,31a3.45,3.45,0,1,1,2.46-5.84l-.77.75a2.29,2.29,0,0,0-1.69-.73,2.38,2.38,0,0,0,0,4.75A2.38,2.38,0,0,0,70.59,29.06Z"/><path class="cls-1" d="M73.29,25.26H71.46V24.18h4.81v1.08H74.43v5.57H73.29Z"/></svg>