<svg id="Layer_1" data-name="Layer 1" xmlns="http://www.w3.org/2000/svg" viewBox="0 0 65 36"><defs><style>.cls-1{fill:#fff;}</style></defs><title>next</title><polygon class="cls-1" points="46.71 35.85 44.94 34.09 61.03 18 44.94 1.91 46.71 0.15 64.56 18 46.71 35.85"/><path class="cls-1" d="M10.64,13.22v7.69H8.46V13.58a2.65,2.65,0,0,0-2.87-2.92,3.78,3.78,0,0,0-3,2v8.23H.44V9h2v1.68a4.24,4.24,0,0,1,3.67-2A4.36,4.36,0,0,1,10.64,13.22Z"/><path class="cls-1" d="M23.38,15a6,6,0,0,1,0,.7H13.69a4,4,0,0,0,4.12,3.49,4.61,4.61,0,0,0,3.6-1.76l1.37,1.43a6.67,6.67,0,0,1-5,2.35,6.11,6.11,0,0,1-6.24-6.29c0-3.49,2.38-6.29,6-6.29C20.89,8.64,23.38,11.15,23.38,15ZM21.25,13.9a3.59,3.59,0,0,0-3.7-3.24,3.7,3.7,0,0,0-3.8,3.24Z"/><path class="cls-1" d="M26,9l3,4.4,3-4.4h2.41l-4,5.8,4.29,6.16H32.18l-3.29-4.68-3.23,4.68H23.22l4.35-6.16L23.48,9Z"/><path class="cls-1" d="M34.38,9h2.33V5.3h2.18V9h3.73v2H38.89v6.45a1.6,1.6,0,0,0,1.73,1.83A2.85,2.85,0,0,0,42,18.71l.81,1.79a4.93,4.93,0,0,1-2.49.72,3.49,3.49,0,0,1-3.6-3.75V10.92H34.38Z"/><path class="cls-1" d="M.48,24.42H2.74a2.13,2.13,0,1,1,0,4.26H1.62v2.4H.48Zm3.31,2.13c0-.62-.41-1-1.19-1h-1V27.6h1C3.38,27.6,3.79,27.18,3.79,26.55Z"/><path class="cls-1" d="M5.67,24.42H7.85a2,2,0,0,1,2.21,2.08,1.92,1.92,0,0,1-1.48,2l1.66,2.59H8.91L7.33,28.57H6.81v2.51H5.67ZM8.9,26.5c0-.66-.46-1-1.19-1h-.9v2h.9C8.44,27.48,8.9,27.15,8.9,26.5Z"/><path class="cls-1" d="M17.37,27.75A3.37,3.37,0,1,1,14,24.31,3.31,3.31,0,0,1,17.37,27.75Zm-1.16,0A2.21,2.21,0,1,0,14,30.11,2.23,2.23,0,0,0,16.21,27.75Z"/><path class="cls-1" d="M20.6,24.42h1.14V29a2.05,2.05,0,0,1-2.27,2.2,2.33,2.33,0,0,1-1.95-1.11l.84-.7a1.47,1.47,0,0,0,1.11.73A1,1,0,0,0,20.6,29Z"/><path class="cls-1" d="M24.1,27.12h2.66v1.09H24.1V30h2.95v1.09H23V24.42h4v1.09H24.1Z"/><path class="cls-1" d="M32.75,29.31l.76.75A3.37,3.37,0,0,1,31,31.19a3.44,3.44,0,1,1,2.46-5.84l-.77.76a2.32,2.32,0,1,0-1.69,4A2.38,2.38,0,0,0,32.75,29.31Z"/><path class="cls-1" d="M35.45,25.51H33.62V24.42h4.81v1.09H36.59v5.57H35.45Z"/></svg>