<svg id="Layer_1" data-name="Layer 1" xmlns="http://www.w3.org/2000/svg" viewBox="0 0 233.09 284.51"><title>Artboard 4</title><path d="M72.65,95.61c6.07-5.08,13.46-11.11,21.83-9.87,4.27.63,8.2,1.79,10.81,5.44a27.58,27.58,0,0,0,4.28,5.39l.66-2.51c-9.34,2.67-18.88,5-28.42,1.85C80,95.3,79.19,98.2,81,98.8c10,3.29,20.17,1,30-1.85a1.51,1.51,0,0,0,.66-2.5c-2.7-2.35-3.94-5.92-6.73-8.16-3-2.4-7.48-3.28-11.18-3.7-8.91-1-16.82,5.52-23.25,10.9-1.48,1.24.65,3.36,2.12,2.12Z"/><path d="M135,95.27a38.23,38.23,0,0,1,19-10.46c7.5-1.47,13.49,3.52,20.55,4.93,1.89.38,2.69-2.51.8-2.89-7.81-1.56-13.85-6.59-22.15-4.93a41.24,41.24,0,0,0-20.31,11.23c-1.39,1.35.73,3.47,2.12,2.12Z"/><path d="M134.86,97.58c9.51,6.4,28.73,8.39,36.46-1.91,1.16-1.55-1.45-3-2.59-1.51-6.67,8.88-24.44,6.15-32.36.83-1.6-1.08-3.11,1.52-1.51,2.59Z"/><path d="M86.45,86.58a4.65,4.65,0,0,0,.62,6.84,6.89,6.89,0,0,0,7.92,0c2.14-1.52,2.94-4.87.87-6.83A3.57,3.57,0,0,0,90,88.24a1.5,1.5,0,0,0,2.89.8c.25-.93,1.16,0,1.14.62,0,1.15-1.3,1.78-2.28,2-1.42.26-5-1-3.22-2.91,1.31-1.42-.81-3.54-2.12-2.13Z"/><path d="M151,86.18c-1.91.38-4.23.37-5.1,2.39a8.16,8.16,0,0,0-.31,5.87c1.37,3.3,7.53,4.49,10.4,2.67,3.86-2.46,1.69-7.49-1.52-9.32-1.5-.86-3.68-1.37-4.94.17a2.62,2.62,0,0,0,.68,4c1.71.89,3.23-1.7,1.51-2.59l.37.62.62.24a9.9,9.9,0,0,1,1.1.72A2.94,2.94,0,0,1,155,93.38c-.19,2-2.71,1.56-4.08,1.24-1.89-.43-3-1.1-2.69-3.21.12-.85.19-1.48,1-1.82a12.45,12.45,0,0,1,2.57-.51c1.9-.38,1.1-3.27-.79-2.9Z"/><path d="M110.81,133.91c2,1.64,4,3.84,6.22,5.11,1.94,1.11,3.82.86,6,.69,3.17-.24,8.87.4,9.59-3.82.33-1.89-2.56-2.7-2.89-.8s-7.3,1.93-8.67,1.77c-3.34-.39-5.67-3-8.13-5.07-1.48-1.23-3.61.88-2.12,2.12Z"/><path d="M146.76,167.52a135.85,135.85,0,0,1-23,2.81q-5.19.18-10.38-.05c-.93,0-11.68-1.29-11.81-1l-1.69.69c4.23,1.1,15.48,3.8,16.67-3.08.88-5.07-5.54-5.66-7.7-2a7.62,7.62,0,0,0-.9,3.57c-.17,2.7-.76,5.47-.84,8.13a6.73,6.73,0,0,0,2.67,5.67c6.11,5.07,17.32,4.82,24.65,3.92,1.89-.23,1.92-3.23,0-3a49.72,49.72,0,0,1-10.49.27c-3-.27-9.07-.62-11.44-2.93-3.87-3.77-.07-7.35-1.59-11.32l.43-1.06a14.24,14.24,0,0,1-3,.13,32.2,32.2,0,0,1-7.68-1.21,1.52,1.52,0,0,0-1.69.69c-2.92,6.58,12.24,5.43,15.34,5.54a139,139,0,0,0,33.24-2.91c1.89-.39,1.09-3.28-.8-2.89Z"/><path d="M96,27.31c.23,18-9.6,33.42-19.42,47.77-9.13,13.31-17.75,26.5-21.46,42.43-8.07,34.58,2.58,69.92-.18,104.82h3a508.65,508.65,0,0,0-7.1-51c-1.72-9-4.3-17.89-5.3-27-1-8.81.72-17.13,3.7-25.39,5.89-16.28,12.66-32,17.32-48.73,2.22-8,4-16.06,6.46-24,1.22-4,2.34-8.81,4.6-12.31,3-4.64,8.78-5.46,13.73-7.07,4.33-1.4,9.38-4.05,13.89-4.5,3.47-.35,4.43,1.35,5.85,4.09.88,1.69,1.82,3.35,2.83,5A75,75,0,0,0,130.41,50,1.52,1.52,0,0,0,133,48.9a72.74,72.74,0,0,0-2-28.73l-2.21,1.7c27.38,20.45,47,52.88,47.49,87.59.15,10.16-1.73,20.11-3.36,30.1a198.78,198.78,0,0,0-2.7,29.32c-.3,20.83,2.44,41.55,5.16,62.16.25,1.85,3.06,2,3,0a243,243,0,0,1,4.43-55c3.2-16.08,10.57-32.25,9.66-48.87-.94-17.12-6-34.66-10.64-51.1-2.05-7.32-4-15-7.78-21.61-3.29-5.69-8.13-10.1-13.33-14a209.25,209.25,0,0,0-20-13.52,85.27,85.27,0,0,0-9.71-5c-2.73-1.17-6.81-3.5-9.87-2.73-4.39,1.11-4.52,7.6-4.24,11.16.47,6.16,3.33,11.89,7.09,16.69,9.5,12.13,24.64,17.09,36,26.94,12.23,10.57,18.9,26,24.63,40.76,7,18,12.7,38.09,8,57.42-4,16.31-14.66,30.12-16.48,47.07-.16,1.44,2.21,2.1,2.79.76,13.49-31,27.6-63.84,26.39-98.39C204.7,105,200.09,89,193.44,73.76c-6-13.77-13.37-27.37-26.05-36.09s-28-12-42.72-15.13c-6.8-1.43-14-2.8-20.67-.05-7,2.88-12.32,9.24-17,14.91a248.83,248.83,0,0,0-28,41.28,87.76,87.76,0,0,0-10.26,45.94c.8,19.94,6,39.38,7.47,59.26,1.53,21.11-2.53,41.86-6.74,62.44-.32,1.59,1.88,2.72,2.74,1.15,9.2-16.69,18.26-33.73,23.68-52.09,5.51-18.67,5.85-37.64,3.25-56.83-2.68-19.71-7.75-39-9.93-58.81-2-18-3.61-43.24,11.34-56.47,8.63-7.65,20.68-9.76,31.86-9.48a135.65,135.65,0,0,1,18.1,1.8c5.46.87,10.81,2.14,14.56,6.5l1.46-2.5a190.1,190.1,0,0,0-45.16-8.32c-12.9-.76-26.18-.84-36.11,8.63C45.71,38.49,42.3,69.69,45.22,95c2,17.56,6.88,34.6,11.76,51.54.54,1.85,3.43,1.07,2.89-.79C50.45,113,40.45,77,53.56,43.76c3-7.67,7.33-15.33,13.2-21.18C73.54,15.84,81.88,14,91.17,14a181.28,181.28,0,0,1,54.5,8.51c1.53.47,2.38-1.44,1.46-2.51-5.36-6.23-13.8-7.07-21.48-8-10.38-1.33-21.11-2-31.3.82-18.16,5-26.68,19.67-28.6,37.6-4.62,43.17,17.38,84.72,10.87,127.9C73,202.56,61.29,224.68,49.56,246l2.74,1.16c3.2-15.64,6.41-31.38,7.09-47.36s-2-31.68-4.49-47.39c-2.6-16.33-5-33.24-1.76-49.66,3.16-15.79,12-29.34,20.83-42.5,4.6-6.84,9.28-13.64,14.53-20C93.34,34.34,99.07,27,106.66,24.7c8-2.41,17.24.65,25.15,2.46a138.73,138.73,0,0,1,21,6.24c15,6.1,25.33,16.59,32.77,30.88s13.38,29.9,15.69,46c5.42,37.72-10.3,74.45-25,108.26l2.8.76c1.55-14.37,9.77-26.57,14.48-40s4.43-27.91,1.33-41.78a187.19,187.19,0,0,0-14.81-40.73C174.34,85,166.78,74.67,155.9,67.12c-11.87-8.23-26.77-14.2-33.46-27.93a23.72,23.72,0,0,1-2.63-11.88c.51-7.68,8.25-3.48,12.38-1.53A131.26,131.26,0,0,1,151,37.18c6.15,4.26,12.62,8.52,17.4,14.36,5.28,6.44,7.47,14.68,9.72,22.54,4.52,15.79,8.9,32.14,10.89,48.47,2.27,18.64-6.06,36.52-9.49,54.56A246.94,246.94,0,0,0,175.32,231h3c-2.26-17.09-4.51-34.22-5.06-51.47-.56-17.89,2.12-34.87,4.65-52.5,3.87-26.86-2.51-53.35-17.45-76a127.27,127.27,0,0,0-30.21-31.81c-1.09-.82-2.53.52-2.21,1.69A70.21,70.21,0,0,1,130,48.9l2.56-1.06a72.29,72.29,0,0,1-17.26-20c-3-5.18-3.94-10.44-10.81-8.33-4.65,1.42-9.26,3-13.89,4.5-3.8,1.23-8.48,2.06-11.87,4.28C73,32.08,71.14,42,69.36,48.13c-5.46,18.8-10,37.57-17.3,55.81-3.32,8.31-7.18,16.55-8.9,25.38-1.63,8.4-.67,16.64,1.06,24.93,4.7,22.58,8.69,45.08,10.74,68.08a1.5,1.5,0,0,0,3,0c2.82-35.69-8.69-72.23.92-107.41C67.45,83.6,99.46,61.48,99,27.31a1.5,1.5,0,0,0-3,0Z"/><path d="M105,67.68a78.34,78.34,0,0,0-32.3-7.11,1.5,1.5,0,0,0,0,3,74.61,74.61,0,0,1,30.78,6.7c1.75.79,3.27-1.79,1.52-2.59Z"/><path d="M137.51,73.08a97.93,97.93,0,0,0,15.9-3.92c1.82-.61,1-3.51-.79-2.89a98.84,98.84,0,0,1-15.91,3.92c-1.9.31-1.09,3.2.8,2.89Z"/><path d="M76.9,89.09A8.79,8.79,0,0,1,77.58,82l-2.06.53c2.45,1.31,6.56,4.77,9.55,4.18s3.23-4.6,5-6.47c2-2.12,2.25.11,4.13,1.47a10,10,0,0,0,11.3.32A1.5,1.5,0,0,0,104,79.41c-4.46,2.6-7.09.27-10.34-2.64-1-1-2.28-1.78-3.79-1.11-1.68.75-2.68,3.6-3.47,5-2.5,4.56-5.78,1.13-9.37-.78a1.53,1.53,0,0,0-2.05.54,12.07,12.07,0,0,0-1,9.44,1.5,1.5,0,0,0,2.89-.8Z"/><path d="M147.42,85a14.84,14.84,0,0,1,.21-4,2.34,2.34,0,0,1,.93-1.82c.44-1,1-1.07,1.79-.08,1.5.43,2.49,2,4.16,2.11A4.43,4.43,0,0,0,157.38,80c2.37-1.68,4.56-3.69,6.82-5.51l-2.36-.31a24.59,24.59,0,0,0,3.86,4.23c1.46,1.26,3.59-.85,2.12-2.12a20.46,20.46,0,0,1-3.39-3.62,1.53,1.53,0,0,0-2.35-.31,55.17,55.17,0,0,1-5.68,4.6c-2.72,1.62-4.43-.4-6.78-1.87a1.44,1.44,0,0,0-1.51,0c-3.34,2.36-3.76,6-3.69,9.89,0,1.93,3,1.93,3,0Z"/><path d="M82.12,102.1a3.24,3.24,0,0,1,.34,1.91,1.54,1.54,0,0,0,1.05,1.84,1.5,1.5,0,0,0,1.84-1,6.87,6.87,0,0,0-.64-4.23,1.52,1.52,0,0,0-2-.54,1.54,1.54,0,0,0-.54,2.06Z"/><path d="M92.6,100.34l2.55,3.08a1.52,1.52,0,0,0,2.12,0,1.54,1.54,0,0,0,0-2.13l-2.55-3.07a1.5,1.5,0,0,0-2.12,0,1.53,1.53,0,0,0,0,2.12Z"/><path d="M150,102.48a16.74,16.74,0,0,0,.31,6.46c.47,1.87,3.36,1.08,2.89-.8a13,13,0,0,1-.31-4.86,1.54,1.54,0,0,0-1.05-1.84,1.5,1.5,0,0,0-1.84,1Z"/><path d="M158.54,102.93l4.13,3.54a1.54,1.54,0,0,0,2.12,0,1.51,1.51,0,0,0,0-2.12l-4.13-3.54a1.54,1.54,0,0,0-2.12,0,1.51,1.51,0,0,0,0,2.12Z"/><path d="M45.71,202.31C33,206.81,25,217.74,20,229.81,14,244,9,260.29,10.82,275.83c.22,1.89,3.23,1.91,3,0-1.63-13.76,2.45-27.41,7.09-40.23S33,210,46.51,205.21c1.81-.64,1-3.54-.8-2.9Z"/><path d="M83.84,214.56c3,19,12.21,39.39,32,45.64,15.09,4.77,34.85-3.05,36.79-20.29.81-7.2-1.73-14.95-7.37-19.66-4-3.33-11.84-5.53-13.08,1.61-1.54,8.81,9.4,10.29,15.59,9.77,11.64-1,22.09-6.6,33.28-9.42,14.16-3.57,27.93-.65,35.27,12.92,6.85,12.66,5,27.63,3.37,41.34-.23,1.91,2.77,1.89,3,0,2-16.13,3.64-34.14-7-47.81-9.86-12.64-25.46-12.53-39.61-8.16-9.34,2.89-18.43,7.3-28.29,8.13a25,25,0,0,1-6.29-.1,7.66,7.66,0,0,1-4.68-2.06c-2.54-2.58-2.38-3.29,1.16-4.57s4-.86,6.55,1.72a17.63,17.63,0,0,1,3.7,5.74c7.17,17.38-10.79,31.71-27.22,29-21.37-3.51-31.2-25.52-34.27-44.61-.3-1.9-3.19-1.09-2.89.8Z"/><path d="M96.27,183.75c3.27,8.66,10.09,19.3,19.63,21.94,5.13,1.41,10.68-.67,15.58-2,6.45-1.79,12.81-3.85,19.11-6.1,1.81-.64,1-3.54-.8-2.89-8.84,3.15-18.23,6.76-27.53,8.24-11.2,1.78-19.65-10.84-23.1-20-.67-1.79-3.57-1-2.89.8Z"/></svg>