<svg id="Layer_1" data-name="Layer 1" xmlns="http://www.w3.org/2000/svg" viewBox="0 0 81 36"><defs><style>.cls-1{fill:#fff;}</style></defs><title>previous-1</title><path class="cls-1" d="M2.46,9.53v1.74a4.71,4.71,0,0,1,4-2,6,6,0,0,1,5.8,6.29,6,6,0,0,1-5.8,6.3A4.84,4.84,0,0,1,2.64,20v7.43H.47V9.53Zm.18,8.21a4.25,4.25,0,0,0,3.52,2.05,4,4,0,0,0,4-4.28,4,4,0,0,0-4-4.27,4.25,4.25,0,0,0-3.52,2Z"/><path class="cls-1" d="M20.33,9.53l-.8,2a3.06,3.06,0,0,0-1.38-.26,3.32,3.32,0,0,0-2.74,2V21.5H13.23v-12h2v1.84a4,4,0,0,1,3.34-2.15A5,5,0,0,1,20.33,9.53Z"/><path class="cls-1" d="M31.05,15.59a5.78,5.78,0,0,1,0,.7H21.36a4,4,0,0,0,4.12,3.5A4.61,4.61,0,0,0,29.08,18l1.37,1.42a6.66,6.66,0,0,1-5,2.36,6.12,6.12,0,0,1-6.24-6.3c0-3.49,2.38-6.29,6-6.29C28.56,9.22,31.05,11.73,31.05,15.59Zm-2.12-1.11a3.61,3.61,0,0,0-3.71-3.24,3.7,3.7,0,0,0-3.8,3.24Z"/><path class="cls-1" d="M32.5,9.53l3.68,8.11,3.67-8.11h2.23L36.1,22l-6-12.48Z"/><path class="cls-1" d="M43.81,4.22A1.48,1.48,0,1,1,42.34,5.7,1.5,1.5,0,0,1,43.81,4.22ZM42.73,9.53H44.9v12H42.73Z"/><path class="cls-1" d="M58.55,15.51a6.17,6.17,0,1,1-12.33,0,6.17,6.17,0,1,1,12.33,0Zm-2.18,0a4,4,0,1,0-8,0,4,4,0,1,0,8,0Z"/><path class="cls-1" d="M59.48,17.22V9.53h2.17v7.33a2.66,2.66,0,0,0,2.88,2.93,3.61,3.61,0,0,0,3-2V9.53h2.17v12h-2V19.66A4.24,4.24,0,0,1,64,21.81,4.35,4.35,0,0,1,59.48,17.22Z"/><path class="cls-1" d="M72.17,17.9a4.61,4.61,0,0,0,3.62,1.94c1.22,0,2.59-.52,2.59-1.48s-.88-1.55-2.72-1.91c-2.56-.52-4.37-1.53-4.37-3.78,0-1.74,1.73-3.45,4.4-3.45A6.24,6.24,0,0,1,80.12,11l-1.43,1.48a4.39,4.39,0,0,0-3-1.32c-1.53,0-2.28.75-2.28,1.53s.93,1.4,2.9,1.81c2.28.49,4.22,1.35,4.22,3.78s-2.43,3.5-4.74,3.5a6.55,6.55,0,0,1-5.12-2.51Z"/><path class="cls-1" d="M41.62,25h2.26a2.13,2.13,0,1,1,0,4.26H42.76v2.39H41.62Zm3.3,2.13c0-.63-.41-1.05-1.18-1.05h-1v2.09h1C44.51,28.18,44.92,27.76,44.92,27.14Z"/><path class="cls-1" d="M46.8,25H49a2,2,0,0,1,2.2,2.07,1.93,1.93,0,0,1-1.48,2l1.67,2.58H50l-1.57-2.51h-.53v2.51H46.8ZM50,27.08c0-.66-.45-1-1.18-1h-.91v2h.91C49.58,28.07,50,27.73,50,27.08Z"/><path class="cls-1" d="M58.5,28.33a3.37,3.37,0,1,1-3.36-3.44A3.31,3.31,0,0,1,58.5,28.33Zm-1.16,0a2.21,2.21,0,1,0-2.2,2.36A2.21,2.21,0,0,0,57.34,28.33Z"/><path class="cls-1" d="M61.74,25h1.14v4.56a2.06,2.06,0,0,1-2.27,2.21,2.33,2.33,0,0,1-2-1.12l.83-.7a1.48,1.48,0,0,0,1.12.73,1,1,0,0,0,1.13-1.08Z"/><path class="cls-1" d="M65.23,27.71h2.66v1.08H65.23v1.79h3v1.08H64.09V25h4v1.08H65.23Z"/><path class="cls-1" d="M73.88,29.89l.76.75a3.45,3.45,0,1,1-.09-4.7l-.77.75a2.3,2.3,0,0,0-1.7-.73,2.38,2.38,0,0,0,0,4.75A2.38,2.38,0,0,0,73.88,29.89Z"/><path class="cls-1" d="M76.59,26.09H74.75V25h4.81v1.08H77.73v5.57H76.59Z"/></svg>