<svg id="Layer_1" data-name="Layer 1" xmlns="http://www.w3.org/2000/svg" viewBox="0 0 104 36"><defs><style>.cls-1{fill:#fff;}</style></defs><title>previous</title><polygon class="cls-1" points="18.14 35.85 0.28 18 18.14 0.15 19.91 1.91 3.82 18 19.91 34.09 18.14 35.85"/><path class="cls-1" d="M25.65,9v1.74a4.71,4.71,0,0,1,4-2,6,6,0,0,1,5.8,6.29,6,6,0,0,1-5.8,6.29,4.8,4.8,0,0,1-3.86-1.78v7.43H23.65V9Zm.18,8.21a4.25,4.25,0,0,0,3.52,2,4,4,0,0,0,4-4.27,4,4,0,0,0-4-4.27,4.25,4.25,0,0,0-3.52,2Z"/><path class="cls-1" d="M43.51,9l-.8,2a3,3,0,0,0-1.37-.26,3.34,3.34,0,0,0-2.75,2v8.23H36.42V9h2v1.84a4,4,0,0,1,3.34-2.15A5,5,0,0,1,43.51,9Z"/><path class="cls-1" d="M54.23,15c0,.23,0,.41,0,.7H44.55a4,4,0,0,0,4.12,3.49,4.64,4.64,0,0,0,3.6-1.76l1.37,1.43a6.67,6.67,0,0,1-5,2.35,6.11,6.11,0,0,1-6.24-6.29c0-3.49,2.38-6.29,6-6.29C51.75,8.64,54.23,11.15,54.23,15ZM52.11,13.9a3.6,3.6,0,0,0-3.7-3.24A3.71,3.71,0,0,0,44.6,13.9Z"/><path class="cls-1" d="M55.68,9l3.68,8.1L63,9h2.22l-6,12.48L53.3,9Z"/><path class="cls-1" d="M67,3.64a1.48,1.48,0,1,1-1.48,1.48A1.49,1.49,0,0,1,67,3.64ZM65.91,9h2.18v12H65.91Z"/><path class="cls-1" d="M81.73,14.93a6.16,6.16,0,1,1-12.32,0,6.16,6.16,0,1,1,12.32,0Zm-2.17,0a4,4,0,1,0-8,0,4,4,0,1,0,8,0Z"/><path class="cls-1" d="M82.66,16.64V9h2.18v7.33a2.65,2.65,0,0,0,2.87,2.92,3.6,3.6,0,0,0,3-2V9h2.18v12h-2V19.07a4.25,4.25,0,0,1-3.68,2.15A4.36,4.36,0,0,1,82.66,16.64Z"/><path class="cls-1" d="M95.35,17.31a4.62,4.62,0,0,0,3.63,2c1.21,0,2.59-.52,2.59-1.48s-.88-1.55-2.72-1.92c-2.57-.51-4.38-1.52-4.38-3.78,0-1.73,1.74-3.44,4.4-3.44a6.21,6.21,0,0,1,4.43,1.81l-1.42,1.48a4.4,4.4,0,0,0-3-1.32c-1.52,0-2.28.75-2.28,1.52s.94,1.4,2.91,1.82c2.27.49,4.22,1.34,4.22,3.78s-2.44,3.49-4.74,3.49a6.56,6.56,0,0,1-5.13-2.51Z"/><path class="cls-1" d="M64.8,24.42h2.26a2.13,2.13,0,1,1,0,4.26H65.94v2.4H64.8Zm3.31,2.13c0-.62-.41-1-1.19-1h-1V27.6h1C67.7,27.6,68.11,27.18,68.11,26.55Z"/><path class="cls-1" d="M70,24.42h2.18a2,2,0,0,1,2.21,2.08,1.92,1.92,0,0,1-1.48,2l1.66,2.59H73.23l-1.58-2.51h-.52v2.51H70Zm3.23,2.08c0-.66-.46-1-1.19-1h-.9v2H72C72.76,27.48,73.22,27.15,73.22,26.5Z"/><path class="cls-1" d="M81.69,27.75a3.37,3.37,0,1,1-3.37-3.44A3.31,3.31,0,0,1,81.69,27.75Zm-1.16,0a2.21,2.21,0,1,0-2.21,2.36A2.23,2.23,0,0,0,80.53,27.75Z"/><path class="cls-1" d="M84.92,24.42h1.14V29a2.05,2.05,0,0,1-2.27,2.2,2.33,2.33,0,0,1-2-1.11l.84-.7a1.47,1.47,0,0,0,1.11.73A1,1,0,0,0,84.92,29Z"/><path class="cls-1" d="M88.42,27.12h2.66v1.09H88.42V30h2.94v1.09H87.28V24.42h4v1.09H88.42Z"/><path class="cls-1" d="M97.06,29.31l.77.75a3.37,3.37,0,0,1-2.56,1.13,3.44,3.44,0,1,1,2.46-5.84l-.77.76a2.32,2.32,0,1,0-1.69,4A2.34,2.34,0,0,0,97.06,29.31Z"/><path class="cls-1" d="M99.77,25.51H97.93V24.42h4.82v1.09h-1.84v5.57H99.77Z"/></svg>