<svg xmlns="http://www.w3.org/2000/svg" id="Layer_1" viewBox="0 0 110 52" width="110" height="52"><defs><style>.cls-1{fill:#fff}</style></defs><path d="M6.08 24.19v9.33h-3.5V2h3.5v20.82l8.25-8.54h4.58l-9 9.08 9.75 10.16h-4.88zm17.08 3.54A7.42 7.42 0 0 0 29 30.86c2 0 4.17-.84 4.17-2.38S31.74 26 28.78 25.4c-4.12-.83-7-2.46-7-6.08 0-2.79 2.79-5.54 7.08-5.54A10 10 0 0 1 36 16.69l-2.29 2.38a7.08 7.08 0 0 0-4.84-2.13c-2.45 0-3.66 1.21-3.66 2.46 0 1.46 1.5 2.25 4.66 2.92 3.67.79 6.79 2.16 6.79 6.08C36.61 32.11 32.7 34 29 34a10.57 10.57 0 0 1-8.25-4zM58.61 24v1.13H43a6.49 6.49 0 0 0 6.62 5.62 7.43 7.43 0 0 0 5.79-2.83l2.21 2.29a10.74 10.74 0 0 1-8 3.79 9.83 9.83 0 0 1-10-10.12c0-5.62 3.84-10.12 9.63-10.12 5.36.02 9.36 4.06 9.36 10.24zm-3.42-1.79A5.79 5.79 0 0 0 49.24 17a6 6 0 0 0-6.13 5.2zM79 21.15v12.37h-3.5V21.73c0-3.29-2-4.7-4.62-4.7-3.13 0-4.79 3.25-4.79 3.25v13.24h-3.5V14.28h3.25V17a6.84 6.84 0 0 1 5.91-3.2A7 7 0 0 1 79 21.15zm6.06-15.41a2.38 2.38 0 1 1-2.37 2.37 2.4 2.4 0 0 1 2.37-2.37zm-1.75 8.54h3.5v19.24h-3.5zm24.62 6.58v12.66h-3.21v-2.79A8.12 8.12 0 0 1 98.18 34C94.73 34 91 31.61 91 27.44c0-3.75 3.31-6.44 7.64-6.44a10.74 10.74 0 0 1 5.79 1.59v-1c0-4-3.33-4.54-4.87-4.54a13.34 13.34 0 0 0-5.75 1.62l-1.46-2.92a14.39 14.39 0 0 1 7.21-2c5.66.03 8.37 3.53 8.37 7.11zm-3.5 7.14v-2.7a9.17 9.17 0 0 0-5-1.38c-3 0-4.87 1.5-4.87 3.5 0 2.5 2.25 3.5 4.41 3.5a7.38 7.38 0 0 0 5.46-2.92zM9.78 39.61l-5.65 8.92h5.38v1.15H2.07l5.65-8.92H2.46v-1.15zm9.14 0h1.21v10.07h-1.21v-4.59h-5.05v4.59h-1.21V39.61h1.21v4.33h5.05zm5.93 4.33h4.26v1.15h-4.26v3.44h4.69v1.15h-5.9V39.61h5.82v1.15h-4.61zm8.35-4.33h1.21v8.92h4.52v1.15H33.2zm17.5 5.04a5 5 0 1 1-10 0 5 5 0 1 1 10 0zm-1.3 0a3.7 3.7 0 1 0-7.37 0 3.7 3.7 0 1 0 7.37 0zM56.63 50l-4.2-10.36h1.32L56.66 47l2.92-7.38h1.25zM65 39.61h1.12L70 49.68h-1.25L67.7 47h-4.35l-1.05 2.68H61zm-1.16 6.2h3.45l-1.73-4.47zm10.03-5.05H71v-1.15h7v1.15h-2.92v8.92h-1.21zm9.31 4.97l-3.39-6.12h1.35l2.7 5 2.67-5h1.28l-3.4 6.12v4h-1.21zm8.61-1.39l4.07-4.73h1.54l-4.26 4.92 4.73 5.15h-1.64l-4.44-4.8v4.8h-1.21V39.61h1.21zm14.68-4.73h1.21v10.07h-1.21v-4.59h-5v4.59h-1.21V39.61h1.21v4.33h5z" class="cls-1"/></svg>